<svg xmlns="http://www.w3.org/2000/svg" width="40" height="40" viewBox="0 0 40 40">
  <metadata><?xpacket begin="﻿" id="W5M0MpCehiHzreSzNTczkc9d"?>
<x:xmpmeta xmlns:x="adobe:ns:meta/" x:xmptk="Adobe XMP Core 5.6-c142 79.160924, 2017/07/13-01:06:39        ">
   <rdf:RDF xmlns:rdf="http://www.w3.org/1999/02/22-rdf-syntax-ns#">
      <rdf:Description rdf:about=""/>
   </rdf:RDF>
</x:xmpmeta>
                                                                                                    
                                                                                                    
                                                                                                    
                                                                                                    
                                                                                                    
                                                                                                    
                                                                                                    
                                                                                                    
                                                                                                    
                                                                                                    
                                                                                                    
                                                                                                    
                                                                                                    
                                                                                                    
                                                                                                    
                                                                                                    
                                                                                                    
                                                                                                    
                                                                                                    
                                                                                                    
                           
<?xpacket end="w"?></metadata>
<defs>
    <style>
      .cls-1 {
        fill: #f16d7f;
        fill-rule: evenodd;
      }
    </style>
  </defs>
  <path id="Forma_1" data-name="Forma 1" class="cls-1" d="M1056.78,3102.5c-1.89,0-3.46,1.63-3.46,4.56,0.02,2.91,1.57,4.37,3.35,4.37,1.83,0,3.42-1.52,3.42-4.59C1060.09,3104.07,1058.79,3102.5,1056.78,3102.5Zm-0.06,7.74c-1.19,0-1.9-1.41-1.88-3.26,0-1.84.67-3.29,1.88-3.29,1.34,0,1.85,1.47,1.85,3.24C1058.57,3108.85,1057.99,3110.24,1056.72,3110.24Zm-5.95-9.42c0-2.77-1.32-4.34-3.33-4.34-1.89,0-3.46,1.64-3.46,4.54,0.03,2.93,1.57,4.39,3.35,4.39C1049.18,3105.41,1050.77,3103.89,1050.77,3100.82Zm-5.24.14c0-1.84.64-3.29,1.85-3.29,1.34,0,1.85,1.47,1.85,3.24,0,1.93-.58,3.31-1.85,3.31C1046.17,3104.22,1045.48,3102.81,1045.53,3100.96Zm10.08-4.32-8.41,14.75h1.23l8.42-14.75h-1.24Zm12.97,10.33L1072,3104l-3.42-2.97,2.21-3.98-4.2-1.6,0.73-4.5-4.5-.05-0.82-4.49-4.24,1.52-2.29-3.93-3.47,2.9-3.47-2.9-2.29,3.93-4.24-1.52-0.82,4.49-4.5.05,0.74,4.5-4.22,1.6,2.22,3.98L1032,3104l3.42,2.97-2.22,3.98,4.21,1.6-0.73,4.5,4.5,0.05,0.82,4.49,4.24-1.52,2.29,3.93,3.47-2.9,3.47,2.9,2.29-3.93,4.24,1.52,0.82-4.49,4.5-.05-0.74-4.5,4.21-1.6Zm-2.66,3.78-1.46.55,0.25,1.57,0.37,2.28-2.28.02-1.56.02-0.28,1.56-0.42,2.28-2.15-.77-1.47-.53-0.79,1.36-1.16,2-1.76-1.48-1.21-1.01-1.21,1.01-1.76,1.48-1.16-2-0.79-1.36-1.47.53-2.15.76-0.42-2.27-0.29-1.56-1.56-.02-2.28-.02,0.37-2.29,0.26-1.56-1.46-.56-2.14-.81,1.13-2.01,0.76-1.38-1.18-1.03-1.73-1.51,1.73-1.51,1.18-1.03-0.76-1.38-1.12-2.02,2.13-.81,1.46-.56-0.25-1.56-0.38-2.28,2.29-.03,1.56-.01,0.28-1.56,0.42-2.28,2.15,0.77,1.47,0.52,0.79-1.36,1.16-1.99,1.76,1.47,1.21,1.01,1.2-1.01,1.77-1.47,1.16,2,0.79,1.36,1.47-.53,2.15-.77,0.42,2.28,0.28,1.56,1.56,0.01,2.29,0.03-0.37,2.28-0.26,1.57,1.46,0.55,2.13,0.81-1.12,2.02-0.76,1.38,1.18,1.03,1.73,1.51-1.73,1.51-1.18,1.03,0.76,1.38,1.12,2.01Z" transform="translate(-1032 -3084)"/>
</svg>
