<svg xmlns="http://www.w3.org/2000/svg" width="45" height="32" viewBox="0 0 45 32">
  <metadata><?xpacket begin="﻿" id="W5M0MpCehiHzreSzNTczkc9d"?>
<x:xmpmeta xmlns:x="adobe:ns:meta/" x:xmptk="Adobe XMP Core 5.6-c142 79.160924, 2017/07/13-01:06:39        ">
   <rdf:RDF xmlns:rdf="http://www.w3.org/1999/02/22-rdf-syntax-ns#">
      <rdf:Description rdf:about=""/>
   </rdf:RDF>
</x:xmpmeta>
                                                                                                    
                                                                                                    
                                                                                                    
                                                                                                    
                                                                                                    
                                                                                                    
                                                                                                    
                                                                                                    
                                                                                                    
                                                                                                    
                                                                                                    
                                                                                                    
                                                                                                    
                                                                                                    
                                                                                                    
                                                                                                    
                                                                                                    
                                                                                                    
                                                                                                    
                                                                                                    
                           
<?xpacket end="w"?></metadata>
<defs>
    <style>
      .cls-1 {
        fill: #f16d7f;
        fill-rule: evenodd;
      }
    </style>
  </defs>
  <path id="Forma_1" data-name="Forma 1" class="cls-1" d="M1043.11,2953.42a0.937,0.937,0,0,0-.93.94,0.89,0.89,0,1,1-.89-0.91,0.94,0.94,0,0,0,0-1.88,2.785,2.785,0,1,0,2.75,2.79A0.937,0.937,0,0,0,1043.11,2953.42Zm26.47,0a0.937,0.937,0,0,0-.93.94,0.89,0.89,0,1,1-.89-0.91,0.94,0.94,0,0,0,0-1.88,2.785,2.785,0,1,0,2.75,2.79A0.937,0.937,0,0,0,1069.58,2953.42Zm7.29-12.02-3.56-6.11c-1.22-2.06-2.37-3.27-4.68-3.47a0.875,0.875,0,0,0-.24-0.03h-7.12v-1.91a1.865,1.865,0,0,0-1.85-1.88h-25.56a1.867,1.867,0,0,0-1.86,1.88v23.54a1.874,1.874,0,0,0,1.86,1.88h1.93a5.562,5.562,0,0,0,10.99,0h15.49a5.562,5.562,0,0,0,10.99,0h2.81a0.937,0.937,0,0,0,.93-0.94v-12.49A0.878,0.878,0,0,0,1076.87,2941.4Zm-3.54,3.6a0.937,0.937,0,0,1,.93-0.94h0.88v1.85h-1.81V2945Zm1.26-3.82h-8.53a0.648,0.648,0,0,0-.19-0.02,0.952,0.952,0,0,1-.95-0.96v-3.77h6.9Zm-40.73-11.3h25.56v23.54h-12.64a5.56,5.56,0,0,0-10.99,0h-1.93v-23.54Zm7.43,28.24a3.765,3.765,0,1,1,3.72-3.76A3.747,3.747,0,0,1,1041.29,2958.12Zm26.47,0a3.765,3.765,0,1,1,3.72-3.76A3.747,3.747,0,0,1,1067.76,2958.12Zm5.5-4.7a5.56,5.56,0,0,0-10.99,0h-1v-19.75h6.63a3.366,3.366,0,0,1,2.58.88h-6.49a0.937,0.937,0,0,0-.93.94v4.71a2.84,2.84,0,0,0,2.58,2.83,0.852,0.852,0,0,0,.23.03h6.38a2.8,2.8,0,0,0-.77,1.94v1.85a0.93,0.93,0,0,0,.93.94h2.73v5.63h-1.88Zm-36.58-19.75h19.91a0.94,0.94,0,0,0,0-1.88h-19.91A0.94,0.94,0,0,0,1036.68,2933.67Z" transform="translate(-1032 -2928)"/>
</svg>
