<svg xmlns="http://www.w3.org/2000/svg" width="47.06" height="35" viewBox="0 0 47.06 35">
  <metadata><?xpacket begin="﻿" id="W5M0MpCehiHzreSzNTczkc9d"?>
<x:xmpmeta xmlns:x="adobe:ns:meta/" x:xmptk="Adobe XMP Core 5.6-c142 79.160924, 2017/07/13-01:06:39        ">
   <rdf:RDF xmlns:rdf="http://www.w3.org/1999/02/22-rdf-syntax-ns#">
      <rdf:Description rdf:about=""/>
   </rdf:RDF>
</x:xmpmeta>
                                                                                                    
                                                                                                    
                                                                                                    
                                                                                                    
                                                                                                    
                                                                                                    
                                                                                                    
                                                                                                    
                                                                                                    
                                                                                                    
                                                                                                    
                                                                                                    
                                                                                                    
                                                                                                    
                                                                                                    
                                                                                                    
                                                                                                    
                                                                                                    
                                                                                                    
                                                                                                    
                           
<?xpacket end="w"?></metadata>
<defs>
    <style>
      .cls-1 {
        fill: #f16d7f;
        fill-rule: evenodd;
      }
    </style>
  </defs>
  <path id="Forma_1" data-name="Forma 1" class="cls-1" d="M1070.37,3246.55a4.6,4.6,0,0,0-4.64,4.54,4.438,4.438,0,0,0,1.56,3.37l-5.87,2.06-8.34-9.7a4.544,4.544,0,0,0,3.1-4.26,4.646,4.646,0,1,0-6.25,4.25l-8.35,9.71-5.86-2.06a4.472,4.472,0,0,0,1.56-3.37,4.652,4.652,0,1,0-5.75,4.4v12.32a1.027,1.027,0,0,0,.05.24,1.6,1.6,0,0,0-.05.39c0,4.42,17.93,4.55,19.97,4.55s19.97-.13,19.97-4.55a1.6,1.6,0,0,0-.05-0.39,1.027,1.027,0,0,0,.05-0.24v-12.32A4.524,4.524,0,0,0,1070.37,3246.55Zm-21.22-3.99a2.386,2.386,0,1,1,2.39,2.33A2.367,2.367,0,0,1,1049.15,3242.56Zm-7.59,16.31a1.141,1.141,0,0,0,1.24-.34l8.7-10.11,8.7,10.11a1.152,1.152,0,0,0,1.25.34l7.76-2.73v9.95c-4.89-2.12-16.12-2.2-17.71-2.2s-12.82.08-17.71,2.2v-9.96Zm9.94,11.91c-8.7,0-14.25-1.01-16.56-1.87a4.748,4.748,0,0,1-1-.47c0.73-.52,3.07-1.24,6.97-1.74a93.757,93.757,0,0,1,21.18,0c3.91,0.5,6.25,1.22,6.97,1.74a4,4,0,0,1-.99.47C1065.76,3269.77,1060.21,3270.78,1051.5,3270.78Zm-21.25-19.69a2.385,2.385,0,1,1,2.39,2.34A2.365,2.365,0,0,1,1030.25,3251.09Zm40.12,2.34a2.336,2.336,0,1,1,2.39-2.34A2.365,2.365,0,0,1,1070.37,3253.43Z" transform="translate(-1027.97 -3238)"/>
</svg>
